<?xml version="1.0" standalone="no"?>
<!DOCTYPE svg PUBLIC "-//W3C//DTD SVG 20010904//EN"
 "http://www.w3.org/TR/2001/REC-SVG-20010904/DTD/svg10.dtd">
<svg version="1.0" xmlns="http://www.w3.org/2000/svg"
 width="512.000000pt" height="512.000000pt" viewBox="0 0 512.000000 512.000000"
 preserveAspectRatio="xMidYMid meet">
<metadata>
Created by potrace 1.11, written by Peter Selinger 2001-2013
</metadata>
<g transform="translate(0.000000,512.000000) scale(0.100000,-0.100000)"
fill="#000000" stroke="none">
<path d="M2243 5104 c-450 -54 -932 -258 -1287 -544 -519 -419 -864 -1040
-941 -1696 -19 -165 -19 -443 0 -608 77 -656 422 -1277 941 -1696 290 -233
685 -423 1055 -504 338 -75 760 -75 1098 0 489 108 970 379 1310 740 377 399
623 922 686 1460 19 165 19 443 0 608 -77 656 -422 1277 -941 1696 -360 290
-839 491 -1300 545 -158 18 -466 18 -621 -1z m-743 -1415 c165 -26 262 -115
290 -267 23 -129 -28 -266 -124 -329 -81 -55 -130 -65 -343 -70 l-193 -5 0
-229 0 -229 -75 0 -75 0 0 570 0 570 228 0 c125 0 256 -5 292 -11z m641 -372
c49 -208 91 -405 95 -438 4 -33 10 -62 15 -64 4 -3 13 21 19 52 6 32 59 231
118 443 l107 385 66 3 65 3 107 -383 c59 -211 113 -408 119 -438 6 -30 15 -59
19 -63 4 -5 12 24 19 65 13 79 178 809 184 815 2 2 35 3 73 1 l70 -3 -136
-567 -136 -568 -66 0 -66 0 -93 328 c-51 180 -108 383 -125 452 -32 124 -35
127 -50 50 -6 -31 -199 -713 -226 -797 -10 -33 -11 -33 -74 -33 l-64 0 -10 38
c-20 74 -261 1084 -261 1094 0 5 32 8 71 6 l72 -3 88 -378z m1900 -187 l216
-570 -76 0 -76 0 -51 143 -51 142 -244 0 -243 0 -28 -75 c-16 -41 -40 -105
-54 -142 l-26 -68 -75 0 c-56 0 -74 3 -70 13 3 6 98 253 212 547 114 294 211
545 216 558 8 20 15 22 71 22 l63 0 216 -570z m-1191 -1780 l0 -230 -25 0 -25
0 0 230 0 230 25 0 25 0 0 -230z m-1380 125 c0 -32 2 -35 30 -35 25 0 30 -4
30 -25 0 -21 -5 -25 -30 -25 l-30 0 0 -96 c0 -102 9 -134 39 -134 10 0 21 -9
24 -20 6 -23 -19 -34 -58 -24 -41 10 -55 56 -55 174 l0 100 -25 0 c-20 0 -25
5 -25 25 0 20 5 25 25 25 22 0 25 4 25 35 0 31 3 35 25 35 22 0 25 -4 25 -35z
m1870 0 c0 -32 2 -35 30 -35 25 0 30 -4 30 -25 0 -21 -5 -25 -30 -25 l-30 0 0
-96 c0 -102 9 -134 39 -134 10 0 21 -9 24 -20 6 -23 -19 -34 -58 -24 -41 10
-55 56 -55 174 l0 100 -25 0 c-20 0 -25 5 -25 25 0 20 5 25 25 25 22 0 25 4
25 35 0 31 3 35 25 35 22 0 25 -4 25 -35z m-1555 -49 c45 -19 75 -69 75 -123
l0 -43 -106 0 c-105 0 -105 0 -99 -22 4 -13 15 -34 24 -48 16 -21 26 -25 72
-25 30 1 61 4 70 9 11 5 18 2 22 -8 17 -45 -120 -69 -176 -32 -76 51 -87 193
-19 261 46 46 81 54 137 31z m195 -6 c0 -24 8 -25 32 -3 10 9 36 16 62 17 36
1 50 -4 73 -26 28 -26 29 -27 41 -8 18 30 83 46 118 29 49 -24 64 -69 64 -196
l0 -113 -25 0 -25 0 0 108 c0 130 -10 156 -62 160 -27 2 -43 -3 -57 -17 -19
-19 -21 -33 -21 -136 l0 -115 -25 0 c-25 0 -25 0 -25 99 0 137 -14 171 -73
171 -63 0 -67 -8 -67 -145 l0 -125 -25 0 -25 0 0 160 c0 153 1 160 20 160 13
0 20 -7 20 -20z m517 2 c4 -18 6 -18 44 1 27 13 49 17 72 13 123 -23 146 -264
31 -312 -42 -18 -88 -13 -116 13 -17 15 -18 13 -18 -60 0 -75 -1 -77 -25 -77
l-25 0 0 220 c0 195 2 220 16 220 9 0 18 -8 21 -18z m628 4 c18 -8 38 -23 43
-33 5 -10 12 -75 14 -145 4 -128 4 -128 -19 -128 -16 0 -23 6 -23 19 0 30 -15
33 -39 7 -13 -14 -34 -27 -48 -31 -33 -8 -91 12 -103 35 -13 24 -13 76 0 99
13 26 81 51 135 51 45 0 45 0 45 35 0 24 -6 37 -19 45 -31 16 -79 12 -101 -10
-20 -20 -60 -28 -60 -12 0 18 35 55 64 68 40 17 69 17 111 0z m530 0 c45 -19
75 -69 75 -123 l0 -43 -106 0 c-105 0 -105 0 -99 -22 4 -13 15 -34 24 -48 16
-21 26 -25 72 -25 30 1 61 4 70 9 11 5 18 2 22 -8 17 -45 -120 -69 -176 -32
-76 51 -87 193 -19 261 46 46 81 54 137 31z"/>
<path d="M1130 3360 l0 -220 178 1 c192 1 224 7 272 53 42 39 61 79 67 141 11
101 -41 193 -129 229 -29 12 -77 16 -213 16 l-175 0 0 -220z"/>
<path d="M3662 3242 c-51 -142 -92 -261 -92 -265 0 -4 86 -7 190 -7 105 0 190
3 190 6 0 3 -34 103 -76 222 -42 120 -83 236 -91 260 -8 23 -18 42 -22 42 -4
0 -48 -116 -99 -258z"/>
<path d="M1681 1364 c-37 -47 -29 -54 54 -54 68 0 75 2 75 20 0 58 -91 82
-129 34z"/>
<path d="M2527 1372 c-25 -28 -24 -172 1 -195 26 -23 87 -22 111 2 39 39 39
135 0 185 -25 32 -86 36 -112 8z"/>
<path d="M3008 1238 c-44 -35 -24 -78 35 -78 55 0 87 22 87 61 0 28 -1 29 -53
29 -29 0 -60 -6 -69 -12z"/>
<path d="M3551 1364 c-37 -47 -29 -54 54 -54 68 0 75 2 75 20 0 58 -91 82
-129 34z"/>
</g>
</svg>
